<svg width="11" height="10" viewBox="0 0 11 10" fill="none" xmlns="http://www.w3.org/2000/svg">
<path fill-rule="evenodd" clip-rule="evenodd" d="M10.9984 3.74953C10.9984 4.11961 10.5767 4.30545 10.3303 4.04242L9.24953 2.89757L6.56978 5.72267C6.48963 5.80768 6.36933 5.80768 6.2877 5.72267L5.58843 4.98093C5.50828 4.89434 5.50828 4.76673 5.58843 4.68173L8.26818 1.85663L7.18739 0.710214C6.94092 0.448777 7.1161 0 7.46351 0H10.6066C10.8218 0 11 0.188994 11 0.417323L10.9984 3.74953Z" fill="#7630B4"/>
<path fill-rule="evenodd" clip-rule="evenodd" d="M8.6421 6.04244V8.12594C8.6421 9.16057 7.85074 9.99998 6.87386 9.99998H1.76824C0.792837 9.99998 0 9.16057 0 8.12594V2.70862C0 1.67399 0.792747 0.833008 1.76824 0.833008H6.08843C6.1983 0.833008 6.28441 0.924342 6.28441 1.04246V1.45822C6.28441 1.57634 6.19979 1.66767 6.08843 1.66767H1.76824C1.22784 1.66767 0.785384 2.13543 0.785384 2.70864V8.12596C0.785384 8.6976 1.22784 9.16692 1.76824 9.16692H6.87386C7.41426 9.16692 7.85671 8.6976 7.85671 8.12596V6.04246C7.85671 5.92434 7.94282 5.83301 8.05269 5.83301H8.44612C8.55599 5.83301 8.6421 5.92434 8.6421 6.04246V6.04244Z" fill="#7630B4"/>
</svg>
