<svg width="30" height="30" viewBox="0 0 30 30" fill="none" xmlns="http://www.w3.org/2000/svg">
<path d="M23.522 0.000171856H6.47764C2.90577 0.000171856 0 2.90621 0 6.47766V23.5225C0 27.094 2.90611 30 6.47764 30H23.522C27.0939 30 30 27.094 30 23.5225V6.4768C29.9997 2.9057 27.0939 0 23.522 0V0.000171856ZM20.2861 4.79681C20.2861 4.21534 20.7618 3.73957 21.3437 3.73957H24.5161C25.0979 3.73957 25.5737 4.21532 25.5737 4.79681V7.96948C25.5737 8.55096 25.0979 9.02672 24.5161 9.02672H21.3437C20.7619 9.02672 20.2861 8.55097 20.2861 7.96948V4.79681ZM23.522 28.4075H6.47764C3.78402 28.4075 1.59189 26.2161 1.59189 23.5218V10.8339H8.57769C10.0957 8.97002 12.4082 7.77968 14.9991 7.77968C17.5901 7.77968 19.903 8.97002 21.4209 10.8339H28.4065V23.5218C28.4071 26.2161 26.2164 28.4075 23.5221 28.4075H23.522Z" fill="#7630B4"/>
<path d="M21.8999 15.6404C21.8999 19.451 18.8105 22.5404 14.9998 22.5404C11.189 22.5404 8.09961 19.451 8.09961 15.6404C8.09961 11.8297 11.189 8.74039 14.9998 8.74039C18.8105 8.74039 21.8999 11.8297 21.8999 15.6404Z" fill="#7630B4"/>
</svg>
