<svg width="40" height="40" viewBox="0 0 40 40" fill="none" xmlns="http://www.w3.org/2000/svg">
<path d="M36.9687 0H2.98963C1.34752 0 0 1.36621 0 3.07363V28.0895C0 29.7544 1.34752 31.1632 2.98963 31.1632H15.4949V34.7919H11.7475C11.1581 34.7919 10.6106 35.2615 10.5266 35.8591L10.1055 38.5486C9.97917 39.3169 10.5686 40 11.3264 40H28.6317C29.3894 40 29.9792 39.3169 29.8526 38.5486L29.4314 35.8591C29.3471 35.2615 28.7999 34.7919 28.2105 34.7919H24.4631V31.1632H36.9684C38.6105 31.1632 40 29.797 40 28.0895V3.03094C40 1.36606 38.6525 0.000152378 36.9684 0.000152378L36.9687 0ZM18.6528 27.1077C18.6528 26.3394 19.2423 25.7415 20.0003 25.7415C20.7581 25.7415 21.3479 26.3391 21.3479 27.1077C21.3479 27.8759 20.7584 28.4739 20.0003 28.4739C19.2426 28.4739 18.6528 27.8763 18.6528 27.1077ZM36.295 23.0948H3.70542V3.75658H36.2529V23.0948H36.295Z" fill="white"/>
</svg>
