<svg width="10" height="16" viewBox="0 0 10 16" fill="none" xmlns="http://www.w3.org/2000/svg">
<path d="M5.00133 16C5.18008 15.993 5.38673 15.9194 5.51701 15.7968L9.76719 11.7968C10.0108 11.5258 10.1113 11.0059 9.82961 10.703C9.55217 10.4047 9.01434 10.4135 8.73585 10.7107L5.75136 13.5232L5.75136 0.75004C5.75136 0.335877 5.41549 0 5.00131 0C4.58712 0 4.25125 0.335864 4.25125 0.75004L4.25125 13.5232L1.26676 10.7107C1.01041 10.4547 0.453405 10.4074 0.173 10.703C-0.107592 10.9984 -0.0179535 11.5368 0.235603 11.7968L4.48578 15.7968C4.63122 15.9337 4.80194 16.0003 5.00146 16H5.00133Z" fill="white"/>
</svg>
