<svg width="41" height="40" viewBox="0 0 41 40" fill="none" xmlns="http://www.w3.org/2000/svg">
<path d="M40.2152 14.7223C38.3839 7.83328 32.7374 2.29211 25.6415 0.56943C18.5456 -1.15325 10.8385 1.09359 5.95497 6.485C-0.0730816 13.0745 -0.836126 22.9587 4.04736 30.4468C3.66584 33.1425 3.36062 35.8382 2.97909 38.5339C2.82649 39.5073 4.04736 40.1813 4.88671 39.9566C7.55736 39.2078 10.3043 38.5339 12.975 37.7851C20.2239 40.7054 28.6178 39.3576 34.417 34.1159C39.8346 29.2487 42.0474 21.6113 40.2161 14.7223H40.2152ZM34.8739 29.1747C30.2956 35.7642 21.2917 38.2357 13.8906 34.9405H13.8143C13.5091 34.7907 13.1276 34.7158 12.6698 34.7907C10.5332 35.3898 8.39671 35.9139 6.26019 36.513C6.4891 34.7158 6.71801 32.9936 6.94692 31.1965C7.02323 30.5974 7.17584 29.9235 6.87062 29.3244C6.64171 28.95 6.33649 28.5756 6.10758 28.1264C5.57345 27.2278 5.11562 26.2543 4.7341 25.2809C3.51323 21.8364 3.43692 18.0175 4.58149 14.5734C6.5654 8.50806 12.2119 3.94034 18.6215 3.19153C25.26 2.29297 31.8985 5.43795 35.3317 10.9042C38.8417 16.5203 38.6128 23.7084 34.8739 29.1751V29.1747Z" fill="#00FF38"/>
<path d="M31.4399 22.1359L28.0062 19.5151C26.938 18.6914 25.4882 18.8412 24.5725 19.7397L23.5806 20.7132C22.8175 20.2639 22.1308 19.7397 21.4441 19.1407C20.8336 18.5416 20.2995 17.7928 19.8417 17.044L20.8336 16.0706C21.7493 15.172 21.8256 13.7493 21.0625 12.701L18.3919 9.25644C17.8578 8.50764 17.0184 8.05835 16.1028 8.05835C15.1871 7.98347 14.2715 8.35788 13.661 8.95692L10.6851 11.8773C9.00645 13.5246 8.62493 16.0706 9.69319 18.1672C11.143 20.8629 12.9743 23.2591 15.1108 25.3558C17.2473 27.4524 19.7654 29.2496 22.436 30.6723C23.2754 31.1216 24.1147 31.2713 24.9541 31.2713C26.3276 31.2713 27.7773 30.7472 28.7693 29.6988L31.7452 26.7785C32.3556 26.1795 32.7371 25.2809 32.6608 24.3823C32.6608 23.4838 32.203 22.6601 31.4399 22.1359ZM29.6086 24.6818L26.6328 27.6022C25.8697 28.351 24.7252 28.5008 23.8095 28.0515C21.3678 26.7785 19.1549 25.206 17.171 23.2591C15.1871 21.3122 13.5847 19.1407 12.2875 16.7445C11.8297 15.8459 11.9823 14.7227 12.7454 13.9739L15.7212 11.0536H15.7975C15.8738 11.0536 15.8738 11.0536 15.8738 11.1285L18.3156 14.2734L17.3236 15.172C16.5606 15.9208 16.3317 17.1189 16.8658 18.0924C17.4762 19.2904 18.3156 20.3388 19.2312 21.2373C20.1469 22.1359 21.2152 22.9596 22.436 23.5586C23.428 24.0828 24.5725 23.8582 25.3356 23.1094L26.4039 22.061L29.5323 24.4572C29.5323 24.4572 29.6086 24.4572 29.6086 24.5321V24.6818Z" fill="#00FF38"/>
</svg>
